Coordinates
version=1
nRows=11
nColumns=46
inDegrees=yes

Units are S.I. units (second, meters, Newtons, ...)
Angles are in degrees.

endheader
time	pelvis_tilt	pelvis_list	pelvis_rotation	pelvis_tx	pelvis_ty	pelvis_tz	bb_angle	bb_tx	bb_ty	bb_tz	hip_flexion_r	hip_adduction_r	hip_rotation_r	knee_angle_r	knee_angle_r_beta	ankle_angle_r	subtalar_angle_r	mtp_angle_r	crank_angle_r	hip_flexion_l	hip_adduction_l	hip_rotation_l	knee_angle_l	knee_angle_l_beta	ankle_angle_l	subtalar_angle_l	mtp_angle_l	crank_angle_l	lumbar_extension	lumbar_bending	lumbar_rotation	arm_flex_r	arm_add_r	arm_rot_r	elbow_flex_r	pro_sup_r	wrist_flex_r	wrist_dev_r	arm_flex_l	arm_add_l	arm_rot_l	elbow_flex_l	pro_sup_l	wrist_flex_l	wrist_dev_l
      5.00500000	     -8.96377530	      8.17868012	      8.44815972	      0.06809020	      1.16451993	     -0.22856866	      0.00000000	      0.50000000	      0.00000000	      0.25000000	     51.65731441	    -12.76743084	      7.20674857	     80.21899083	      1.40008551	    -23.04052581	     -9.13717059	      0.00000000	      0.00000000	     63.64781487	      9.63838405	      1.33922644	     70.27874233	      1.22659545	     17.33372277	    -11.76463430	      0.00000000	      0.00000000	    -66.68916137	      3.08451754	     -7.83851973	     89.44554071	    -15.86228484	     33.29202134	     54.86804045	     34.78615765	      0.00000000	      0.00000000	     89.77764493	    -12.06791963	     35.69027917	     55.01272165	     24.45530219	      0.00000000	      0.00000000
      5.01000000	     -8.61183701	      7.63625288	      8.27780817	      0.06846218	      1.16433173	     -0.23009348	      0.00000000	      0.50000000	      0.00000000	      0.25000000	     52.68658134	    -12.36417427	      7.23074791	     82.23014787	      1.43518682	    -24.43781056	     -8.70562951	      0.00000000	      0.00000000	     61.81197947	      9.22750969	      1.76108474	     67.86645652	      1.18449312	     17.26311818	    -11.53939670	      0.00000000	      0.00000000	    -66.59482291	      3.64084271	     -7.43381977	     89.46796995	    -15.17205016	     33.48790316	     54.00172486	     34.61700044	      0.00000000	      0.00000000	     89.77987924	    -12.69109894	     36.97820298	     54.20917291	     24.38767447	      0.00000000	      0.00000000
      5.01500000	     -8.28806217	      7.05613021	      8.05124708	      0.06892737	      1.16433562	     -0.23150996	      0.00000000	      0.50000000	      0.00000000	      0.25000000	     53.72257037	    -11.87998857	      7.24587124	     84.09738639	      1.46777628	    -25.84087004	     -8.35174133	      0.00000000	      0.00000000	     60.03230780	      8.70781899	      2.11482065	     65.54808374	      1.14402988	     16.98854444	    -11.30261586	      0.00000000	      0.00000000	    -66.55657475	      4.16426129	     -6.87549739	     89.49171065	    -14.63049219	     33.66999759	     53.41042471	     34.48830361	      0.00000000	      0.00000000	     89.77522546	    -13.10707730	     37.57060051	     53.68768953	     24.37474132	      0.00000000	      0.00000000
      5.02000000	     -7.95485395	      6.50975547	      7.80409578	      0.06946151	      1.16460152	     -0.23290366	      0.00000000	      0.50000000	      0.00000000	      0.25000000	     54.74268420	    -11.43117431	      7.23958267	     85.82539205	      1.49793567	    -27.19269838	     -7.99210018	      0.00000000	      0.00000000	     58.22689851	      8.19351765	      2.52191206	     63.24471658	      1.10382854	     16.51688606	    -10.53243240	      0.00000000	      0.00000000	    -66.51461617	      4.60761594	     -6.41695062	     89.51913903	    -14.04696567	     33.81522701	     52.65732546	     34.27614015	      0.00000000	      0.00000000	     89.77198859	    -13.33397417	     38.11147395	     52.85686191	     24.31977019	      0.00000000	      0.00000000
      5.02500000	     -7.54141190	      6.00331832	      7.43078517	      0.07008289	      1.16527772	     -0.23412011	      0.00000000	      0.50000000	      0.00000000	      0.25000000	     55.65610610	    -10.88954222	      7.31933617	     87.42579576	      1.52586799	    -28.71851955	     -7.68266021	      0.00000000	      0.00000000	     56.30066580	      7.47287475	      2.61407463	     60.88941447	      1.06272076	     16.06102395	    -10.35474389	      0.00000000	      0.00000000	    -66.60666598	      4.96820074	     -5.81700389	     89.53556450	    -13.65919481	     34.01399277	     52.25959261	     34.16739744	      0.00000000	      0.00000000	     89.76806109	    -13.52676261	     38.55644939	     52.19489043	     24.25566471	      0.00000000	      0.00000000
      5.03000000	     -7.34803651	      5.36470034	      7.13029339	      0.07070096	      1.16569023	     -0.23555187	      0.00000000	      0.50000000	      0.00000000	      0.25000000	     56.76671212	    -10.29440567	      7.32279039	     88.97114090	      1.55283935	    -30.00946655	     -7.20349727	      0.00000000	      0.00000000	     54.59378271	      6.80141547	      2.99560747	     58.53839033	      1.02168765	     15.47104484	     -9.85704023	      0.00000000	      0.00000000	    -66.53308726	      5.47597020	     -5.11324313	     89.54563343	    -13.35911978	     34.16067394	     52.14311963	     34.14611103	      0.00000000	      0.00000000	     89.75311725	    -13.72550923	     38.66275970	     51.89874066	     24.21563153	      0.00000000	      0.00000000
      5.03500000	     -6.78125550	      5.07004632	      6.52666969	      0.07148947	      1.16708149	     -0.23649405	      0.00000000	      0.50000000	      0.00000000	      0.25000000	     57.49579589	     -9.67395860	      7.63333784	     90.32878717	      1.57653475	    -32.30863682	     -6.80661142	      0.00000000	      0.00000000	     52.34272372	      6.02750449	      2.75063973	     56.05084070	      0.97827172	     14.70073842	     -9.43705224	      0.00000000	      0.00000000	    -66.74606805	      5.49072298	     -4.61451758	     89.56568625	    -12.91035668	     34.52514786	     51.29170583	     33.96551654	      0.00000000	      0.00000000	     89.75857891	    -13.72728194	     39.51949240	     50.59600514	     24.04175574	      0.00000000	      0.00000000
      5.04000000	     -6.45095026	      4.57985014	      5.98696555	      0.07222536	      1.16805993	     -0.23766814	      0.00000000	      0.50000000	      0.00000000	      0.25000000	     58.45143362	     -8.97524387	      7.80456868	     91.70173516	      1.60049721	    -33.46875459	     -6.56877498	      0.00000000	      0.00000000	     50.37779287	      5.17311495	      2.68554603	     53.62975130	      0.93601574	     13.96419584	     -8.70785505	      0.00000000	      0.00000000	    -66.70690058	      5.69533674	     -3.99268566	     89.58549357	    -12.35037049	     34.87212309	     50.30724740	     33.73087970	      0.00000000	      0.00000000	     89.75527773	    -13.71250159	     40.32874604	     49.26364005	     23.87639792	      0.00000000	      0.00000000
      5.04500000	     -6.10688109	      4.02004624	      5.39391353	      0.07300170	      1.16913394	     -0.23869988	      0.00000000	      0.50000000	      0.00000000	      0.25000000	     59.37012930	     -8.16400387	      7.93259918	     93.00210122	      1.62319288	    -34.49897160	     -6.21194521	      0.00000000	      0.00000000	     48.37309090	      4.19697353	      2.51426533	     51.20622514	      0.89371723	     13.29278858	     -8.12554703	      0.00000000	      0.00000000	    -66.74406150	      5.91047753	     -3.28479159	     89.59923967	    -11.83240408	     35.14433820	     49.62879646	     33.56829385	      0.00000000	      0.00000000	     89.74614115	    -13.75003419	     40.86636519	     48.26901161	     23.77499334	      0.00000000	      0.00000000
      5.05000000	     -5.65554925	      3.50312080	      4.76677202	      0.07385151	      1.17052297	     -0.23962468	      0.00000000	      0.50000000	      0.00000000	      0.25000000	     60.15916210	     -7.37421590	      8.01584766	     94.29138101	      1.64569505	    -35.31500915	     -6.19710304	      0.00000000	      0.00000000	     46.14820345	      3.24250984	      2.24321492	     48.66673300	      0.84939473	     12.43352666	     -7.28605697	      0.00000000	      0.00000000	    -66.92101931	      6.07431447	     -2.57247612	     89.61226247	    -11.25005880	     35.11320024	     48.86189920	     33.58858616	      0.00000000	      0.00000000	     89.73684929	    -13.64446473	     41.20535463	     47.05745190	     24.25074039	      0.00000000	      0.00000000
      5.05500000	     -5.69933219	      2.72271624	      4.35627803	      0.07451422	      1.17081967	     -0.24114730	      0.00000000	      0.50000000	      0.00000000	      0.25000000	     61.49060437	     -6.59668124	      7.88176719	     95.62351806	      1.66894523	    -35.66310989	     -5.86743016	      0.00000000	      0.00000000	     44.60912255	      2.32778278	      2.36153574	     46.39894791	      0.80981441	     11.75737216	     -6.67953110	      0.00000000	      0.00000000	    -66.64647808	      6.61591394	     -1.72854125	     89.61803726	    -10.78620039	     35.32069716	     48.66266381	     33.54999851	      0.00000000	      0.00000000	     89.70587392	    -13.72985433	     41.38134183	     46.64933430	     24.20373000	      0.00000000	      0.00000000
